<svg width="18" height="27" viewBox="0 0 18 27" fill="none" xmlns="http://www.w3.org/2000/svg">
<path d="M8.99998 6.18726C8.32499 6.18726 7.87506 6.63718 7.87506 7.31217V10.6871C7.87506 11.3621 8.32499 11.812 8.99998 11.812C9.67497 11.812 10.1249 11.3621 10.1249 10.6871V7.31217C10.1249 6.63738 9.67497 6.18726 8.99998 6.18726Z" fill="black"/>
<path d="M9 0C4.04993 0 0 4.04993 0 9V18C0 22.9501 4.04993 27 9 27C13.9501 27 18 22.9501 18 18V9C18 4.04993 13.9501 0 9 0ZM15.7499 17.9995C15.7499 21.712 12.7124 24.7494 9 24.7494C5.28757 24.7494 2.25012 21.712 2.25012 17.9995V9C2.25012 5.28757 5.28757 2.25012 9 2.25012C12.7124 2.25012 15.7499 5.28757 15.7499 9V17.9995Z" fill="black"/>
</svg>
