<svg width="50" height="45" viewBox="0 0 50 45" fill="none" xmlns="http://www.w3.org/2000/svg">
<rect width="49.2901" height="44.1911" fill="#B4B4B4"/>
<g clip-path="url(#clip0_701_17)">
<path d="M29.5003 11.3404V11.3347H30.8551L31.3498 11.4331C31.6793 11.4971 31.9787 11.5795 32.248 11.6835C32.5173 11.7865 32.7774 11.9065 33.0294 12.0438C33.2814 12.181 33.5091 12.3217 33.7149 12.4635C33.9184 12.6042 34.0998 12.754 34.2617 12.9118C34.4212 13.0719 34.6709 13.1131 35.0096 13.0353C35.3483 12.9576 35.7124 12.8512 36.1031 12.7128C36.4938 12.5756 36.8799 12.4212 37.2625 12.2485C37.644 12.0769 37.8775 11.9672 37.9607 11.9214C38.0428 11.8734 38.0856 11.8471 38.0913 11.8436L38.096 11.8356L38.1226 11.8231L38.1491 11.8105L38.1757 11.7979L38.2023 11.7853L38.2081 11.7773L38.2162 11.7716L38.2243 11.7659L38.2289 11.7579L38.2555 11.7499L38.2821 11.7441L38.2775 11.783L38.2694 11.8219L38.2566 11.8608L38.2439 11.8997L38.2301 11.926L38.2173 11.9523L38.2046 11.9912C38.1954 12.0175 38.1873 12.0518 38.178 12.0941C38.1688 12.1376 38.0867 12.3091 37.9307 12.6099C37.7746 12.9107 37.5793 13.2149 37.3446 13.5248C37.1099 13.8336 36.9007 14.068 36.7146 14.2259C36.5273 14.386 36.4025 14.4969 36.3424 14.561C36.2811 14.6261 36.2083 14.6868 36.1216 14.7416L35.991 14.8263L35.9644 14.8389L35.9378 14.8514L35.9332 14.8594L35.9251 14.8652L35.917 14.8709L35.9112 14.8789L35.8846 14.8915L35.858 14.904L35.8534 14.9121L35.8453 14.9178L35.8372 14.9235L35.8315 14.9315L35.8268 14.9395L35.8187 14.9452L35.8106 14.9509L35.8049 14.9589H35.9355L36.6649 14.8045C37.1516 14.7016 37.6151 14.577 38.0578 14.4306L38.7606 14.1984L38.8392 14.1721L38.8785 14.1595L38.9051 14.147L38.9317 14.1344L38.9583 14.1218L38.9849 14.1092L39.0369 14.1012L39.0889 14.0955V14.147L39.0762 14.1527L39.0635 14.1607L39.0589 14.1687L39.0508 14.1744L39.0427 14.1801L39.0369 14.1881L39.0323 14.1961L39.0242 14.2018L39.0161 14.2076L39.0103 14.2156L39.0057 14.2236L38.9976 14.2293L38.9849 14.2556L38.9722 14.2819L38.9641 14.2876C38.9606 14.2933 38.8508 14.4386 38.6335 14.7256C38.4162 15.0138 38.2994 15.1602 38.2821 15.1637C38.2647 15.1694 38.2405 15.1945 38.2092 15.2414C38.1792 15.2895 37.9954 15.4816 37.6567 15.8155C37.318 16.1506 36.9862 16.448 36.6614 16.7099C36.3354 16.9729 36.1701 17.2954 36.1667 17.6785C36.1609 18.0594 36.1412 18.4905 36.1066 18.972C36.0719 19.4535 36.0072 19.9727 35.9112 20.5308C35.8153 21.0889 35.6685 21.7202 35.4685 22.4247C35.2685 23.1292 35.0258 23.8165 34.7391 24.4855C34.4524 25.1557 34.153 25.7561 33.8409 26.2891C33.5288 26.822 33.2421 27.2726 32.982 27.642C32.7219 28.0114 32.4572 28.3591 32.1879 28.685C31.9186 29.011 31.5787 29.3792 31.1672 29.7875C30.7545 30.1946 30.5279 30.4177 30.4898 30.4577C30.4493 30.4954 30.2794 30.6361 29.9789 30.8797C29.6806 31.1256 29.3593 31.3715 29.0148 31.6162C28.6726 31.8598 28.3582 32.0634 28.0715 32.2269C27.7849 32.3904 27.4392 32.5769 27.0347 32.7862C26.6324 32.9977 26.1966 33.1933 25.7273 33.374C25.258 33.5547 24.7632 33.7217 24.243 33.8761C23.7217 34.0304 23.2189 34.1505 22.7322 34.2363C22.2455 34.3221 21.6953 34.3953 21.078 34.4547L20.1533 34.5451V34.5577H18.4586V34.5451L18.2378 34.5325C18.0899 34.5234 17.9685 34.5154 17.8737 34.5062C17.7778 34.4971 17.4183 34.4502 16.7929 34.3644C16.1675 34.2786 15.6774 34.1928 15.3214 34.1071C14.9653 34.0213 14.4359 33.8577 13.7331 33.6176C13.0303 33.3774 12.428 33.1338 11.9287 32.8879C11.4304 32.6443 11.1183 32.4899 10.9912 32.4236C10.8663 32.3596 10.7253 32.2807 10.5693 32.1869L10.3346 32.0451L10.33 32.0371L10.3219 32.0313L10.3138 32.0256L10.308 32.0176L10.2814 32.005L10.2548 31.9925L10.2502 31.9845L10.2421 31.9787L10.234 31.973L10.2283 31.965L10.2236 31.957L10.2155 31.9513H10.2028V31.8998L10.2294 31.9055L10.256 31.9135L10.3727 31.9261C10.4513 31.9353 10.664 31.9479 11.0108 31.965C11.3576 31.9822 11.7275 31.9822 12.1171 31.965C12.5066 31.9479 12.9066 31.909 13.3146 31.8495C13.7227 31.7889 14.2047 31.686 14.7596 31.5407C15.3156 31.3943 15.8254 31.2216 16.2912 31.0204C16.7548 30.8179 17.0842 30.667 17.2807 30.5663C17.4749 30.468 17.772 30.2861 18.1708 30.0197L18.7696 29.6205L18.7754 29.6125L18.7835 29.6068L18.7915 29.6011L18.7962 29.5931L18.802 29.5851L18.81 29.5794L18.8181 29.5736L18.8228 29.5656L18.8493 29.5576L18.8759 29.5519L18.8817 29.5256L18.8898 29.4993L18.8979 29.4936L18.9025 29.4856L18.6944 29.473C18.5557 29.4639 18.4205 29.4558 18.291 29.4467C18.1604 29.4375 17.957 29.3998 17.6795 29.3312C17.4021 29.2626 17.1027 29.1596 16.7813 29.0224C16.46 28.8852 16.1479 28.7216 15.8439 28.5329C15.5399 28.3442 15.3202 28.1864 15.185 28.0617C15.0509 27.9382 14.8775 27.7632 14.6636 27.5357C14.4521 27.3069 14.2683 27.0725 14.1111 26.8323C13.955 26.5921 13.8059 26.3142 13.6637 25.9997L13.4476 25.5308L13.4349 25.492L13.4221 25.4531L13.4141 25.4268L13.4083 25.4005L13.4476 25.4062L13.4869 25.4142L13.7736 25.4531C13.9643 25.4794 14.2637 25.4874 14.6717 25.4794C15.0798 25.4702 15.3618 25.4531 15.5179 25.4279C15.6739 25.4016 15.7699 25.3845 15.8046 25.3764L15.8566 25.3639L15.9213 25.3513L15.9861 25.3387L15.9918 25.3307L15.9999 25.325L16.008 25.3193L16.0126 25.3113L15.9606 25.2987L15.9086 25.2861L15.8566 25.2735L15.8046 25.2609L15.7525 25.2484C15.7179 25.2392 15.6566 25.2221 15.5699 25.1969C15.4832 25.1706 15.2486 25.0768 14.8671 24.9133C14.4856 24.7497 14.1816 24.5908 13.955 24.4364C13.7285 24.2808 13.5135 24.1116 13.3089 23.9286C13.1054 23.7433 12.8823 23.5043 12.6396 23.2127C12.3968 22.921 12.1795 22.5814 11.9888 22.1948C11.798 21.8083 11.6547 21.4389 11.5588 21.0866C11.464 20.7367 11.4004 20.3787 11.3715 20.0173L11.3241 19.4764L11.3507 19.4821L11.3773 19.4901L11.4039 19.5027L11.4304 19.5152L11.457 19.5278L11.4836 19.5404L11.887 19.7211C12.1564 19.8412 12.4905 19.9441 12.8893 20.0299C13.2881 20.1157 13.5273 20.1625 13.6059 20.1717L13.7227 20.1843H13.9574L13.9527 20.1763L13.9446 20.1706L13.9331 20.1671L13.9273 20.1591L13.9227 20.1511L13.9146 20.1454L13.9065 20.1397L13.9007 20.1317L13.8753 20.1214L13.8487 20.1088L13.8441 20.1008L13.836 20.0951L13.8279 20.0894L13.8221 20.0813L13.7955 20.0688L13.7689 20.0562L13.7643 20.0482C13.7585 20.0448 13.6846 19.9899 13.5401 19.8835C13.3979 19.7749 13.2488 19.6353 13.0915 19.4638C12.9355 19.2922 12.7794 19.1115 12.6222 18.9228C12.4662 18.733 12.3263 18.5306 12.2061 18.3178C12.0847 18.1028 11.9564 17.8295 11.8212 17.499C11.6871 17.1696 11.5853 16.8357 11.516 16.5006C11.4466 16.1655 11.4073 15.835 11.3992 15.509C11.39 15.1831 11.3992 14.904 11.4258 14.6719C11.4524 14.4397 11.5044 14.1778 11.5819 13.8862C11.6605 13.5946 11.7726 13.2846 11.9206 12.9587L12.1414 12.4692L12.1541 12.4303L12.1668 12.3914L12.1749 12.3857L12.1795 12.3777L12.1853 12.3697L12.1934 12.364L12.2015 12.3697L12.2061 12.3777L12.2119 12.3857L12.22 12.3914L12.228 12.3972L12.2327 12.4052L12.2385 12.4132L12.2465 12.4189L12.2593 12.4452L12.272 12.4715L12.2801 12.4772L12.2847 12.4852L12.6361 12.8718C12.8708 13.1291 13.1482 13.4173 13.4695 13.7352C13.7909 14.0532 13.9689 14.2179 14.0036 14.2304C14.0383 14.2442 14.0822 14.2842 14.1342 14.3494C14.1862 14.4134 14.3596 14.5655 14.6556 14.8057C14.9503 15.0459 15.3376 15.3249 15.815 15.6428C16.2924 15.9608 16.8218 16.2741 17.4033 16.5829C17.9847 16.8917 18.6101 17.1708 19.2782 17.4201C19.9463 17.6694 20.4157 17.8318 20.685 17.9096C20.9543 17.9873 21.4144 18.0857 22.0652 18.2058C22.716 18.3258 23.2073 18.4036 23.5367 18.4379C23.8662 18.4722 24.0927 18.4917 24.2141 18.4974L24.3968 18.5031L24.3921 18.4642L24.384 18.4253L24.332 18.1028C24.2974 17.8878 24.28 17.587 24.28 17.2005C24.28 16.8139 24.3101 16.4571 24.3713 16.1312C24.4326 15.8052 24.5228 15.4747 24.6453 15.1396C24.7667 14.8045 24.8857 14.5358 25.0025 14.3334C25.1204 14.1321 25.2753 13.9034 25.466 13.6449C25.6568 13.3876 25.9041 13.1211 26.2081 12.8466C26.5122 12.5721 26.8589 12.3274 27.2497 12.1124C27.6404 11.8974 28.001 11.735 28.3305 11.6229C28.6599 11.5108 28.9385 11.4388 29.1639 11.4045C29.3882 11.3656 29.5003 11.345 29.5003 11.3404Z" fill="white" stroke="white" stroke-width="0.5"/>
</g>
<defs>
<clipPath id="clip0_701_17">
<rect width="28.8942" height="23.2287" fill="white" transform="translate(10.1979 11.3311)"/>
</clipPath>
</defs>
</svg>
