<svg width="50" height="45" viewBox="0 0 50 45" fill="none" xmlns="http://www.w3.org/2000/svg">
<rect x="0.35498" y="0.566406" width="49.2901" height="44.1911" fill="#B4B4B4"/>
<g clip-path="url(#clip0_701_22)">
<path d="M30.3704 9.09253H20.1966C15.5169 9.09253 11.7138 12.8887 11.7138 17.5753V27.7491C11.7138 32.4288 15.51 36.2319 20.1966 36.2319H30.3704C35.05 36.2319 38.8531 32.4357 38.8531 27.7491V17.5753C38.8531 12.8887 35.0569 9.09253 30.3704 9.09253ZM36.3062 27.7491C36.3062 31.0207 33.642 33.685 30.3704 33.685H20.1966C16.9249 33.685 14.2607 31.0207 14.2607 27.7491V17.5753C14.2607 14.3037 16.9249 11.6394 20.1966 11.6394H30.3704C33.642 11.6394 36.3062 14.3037 36.3062 17.5753V27.7491Z" fill="white"/>
<path d="M25.2833 15.8772C21.5354 15.8772 18.4985 18.9142 18.4985 22.662C18.4985 26.4099 21.5354 29.4469 25.2833 29.4469C29.0312 29.4469 32.0681 26.4099 32.0681 22.662C32.0681 18.9142 29.0312 15.8772 25.2833 15.8772ZM25.2833 26.9C22.9435 26.9 21.0454 24.995 21.0454 22.662C21.0454 20.3222 22.9504 18.4241 25.2833 18.4241C27.6162 18.4241 29.5212 20.3222 29.5212 22.662C29.5212 25.0019 27.6231 26.9 25.2833 26.9Z" fill="white"/>
<path d="M32.5789 16.2705C33.0783 16.2705 33.4831 15.8657 33.4831 15.3663C33.4831 14.867 33.0783 14.4622 32.5789 14.4622C32.0795 14.4622 31.6747 14.867 31.6747 15.3663C31.6747 15.8657 32.0795 16.2705 32.5789 16.2705Z" fill="white"/>
</g>
<defs>
<clipPath id="clip0_701_22">
<rect width="27.1945" height="27.1945" fill="white" transform="translate(11.686 9.0647)"/>
</clipPath>
</defs>
</svg>
