<svg width="17" height="23" viewBox="0 0 17 23" fill="none" xmlns="http://www.w3.org/2000/svg">
<path d="M4.19359 7.16636C5.68343 5.66536 7.79815 5.10839 9.72058 5.4958L8.54304 6.68216L10.2493 8.40118L14.4065 4.21282L10.2491 0L8.54287 1.71902L9.86458 3.05064C7.24532 2.61477 4.48178 3.41373 2.48726 5.44738C-0.372394 8.32846 -0.756923 12.7347 1.28574 16.0515L3.06403 14.2599C1.8865 11.96 2.27103 9.0789 4.19346 7.16628L4.19359 7.16636Z" fill="white"/>
<path d="M15.7041 6.94849L13.9258 8.7401C15.0792 11.04 14.6949 13.9211 12.7964 15.858C11.3066 17.359 9.19185 17.9159 7.26942 17.5285L8.44695 16.3422L6.74071 14.6231L2.5835 18.8117L6.74071 23L8.44695 21.281L7.12524 19.9494C9.74467 20.3853 12.508 19.5863 14.5026 17.5526C17.3622 14.6716 17.7707 10.2653 15.7041 6.94849H15.7041Z" fill="white"/>
</svg>
